<svg xmlns="http://www.w3.org/2000/svg" viewBox="0 0 468.397 468.397"><path d="M234.201 0C105.062 0 .001 105.059.001 234.2c0 129.139 105.061 234.198 234.2 234.198 129.132 0 234.194-105.059 234.194-234.198C468.396 105.059 363.356 0 234.201 0zm0 444.851c-116.153 0-210.648-94.504-210.648-210.651 0-116.145 94.503-210.65 210.648-210.65 116.147 0 210.643 94.505 210.643 210.65 0 116.147-94.495 210.651-210.643 210.651zm80.69-210.651c0-44.497-36.187-80.693-80.681-80.693-44.489 0-80.678 36.197-80.678 80.693 0 44.495 36.197 80.69 80.678 80.69 44.478 0 80.681-36.196 80.681-80.69zm-80.69 57.138c-31.521 0-57.134-25.636-57.134-57.138 0-31.512 25.629-57.142 57.134-57.142 31.502 0 57.122 25.63 57.122 57.142.016 31.514-25.603 57.138-57.122 57.138zm0-98.399c-22.75 0-41.269 18.51-41.269 41.26 0 22.747 18.511 41.26 41.269 41.26 22.746 0 41.261-18.498 41.261-41.26 0-22.749-18.498-41.26-41.261-41.26zm0 58.969c-9.774 0-17.717-7.942-17.717-17.708s7.951-17.708 17.717-17.708c9.767 0 17.709 7.942 17.709 17.708s-7.934 17.708-17.709 17.708zm56.914 64.997l51.03 75.796s-31.302 35.759-78.458 39.321l-15.749-100.467c0 .001 31.403.113 43.177-14.65zM169.217 159.353L118.19 75.7s35.552-31.466 78.453-31.466l15.751 92.6c.001-.001-30.201 1.416-43.177 22.519zm58.851-20.264l-14.056-98.857 15.543-2.208 14.061 98.861-15.548 2.204z"/></svg><svg xmlns="http://www.w3.org/2000/svg" viewBox="0 0 468.397 468.397"><path d="M234.201 0C105.062 0 .001 105.059.001 234.2c0 129.139 105.061 234.198 234.2 234.198 129.132 0 234.194-105.059 234.194-234.198C468.396 105.059 363.356 0 234.201 0zm0 444.851c-116.153 0-210.648-94.504-210.648-210.651 0-116.145 94.503-210.65 210.648-210.65 116.147 0 210.643 94.505 210.643 210.65 0 116.147-94.495 210.651-210.643 210.651zm80.69-210.651c0-44.497-36.187-80.693-80.681-80.693-44.489 0-80.678 36.197-80.678 80.693 0 44.495 36.197 80.69 80.678 80.69 44.478 0 80.681-36.196 80.681-80.69zm-80.69 57.138c-31.521 0-57.134-25.636-57.134-57.138 0-31.512 25.629-57.142 57.134-57.142 31.502 0 57.122 25.63 57.122 57.142.016 31.514-25.603 57.138-57.122 57.138zm0-98.399c-22.75 0-41.269 18.51-41.269 41.26 0 22.747 18.511 41.26 41.269 41.26 22.746 0 41.261-18.498 41.261-41.26 0-22.749-18.498-41.26-41.261-41.26zm0 58.969c-9.774 0-17.717-7.942-17.717-17.708s7.951-17.708 17.717-17.708c9.767 0 17.709 7.942 17.709 17.708s-7.934 17.708-17.709 17.708zm56.914 64.997l51.03 75.796s-31.302 35.759-78.458 39.321l-15.749-100.467c0 .001 31.403.113 43.177-14.65zM169.217 159.353L118.19 75.7s35.552-31.466 78.453-31.466l15.751 92.6c.001-.001-30.201 1.416-43.177 22.519zm58.851-20.264l-14.056-98.857 15.543-2.208 14.061 98.861-15.548 2.204z"/></svg><svg xmlns="http://www.w3.org/2000/svg" viewBox="0 0 468.397 468.397"><path d="M234.201 0C105.062 0 .001 105.059.001 234.2c0 129.139 105.061 234.198 234.2 234.198 129.132 0 234.194-105.059 234.194-234.198C468.396 105.059 363.356 0 234.201 0zm0 444.851c-116.153 0-210.648-94.504-210.648-210.651 0-116.145 94.503-210.65 210.648-210.65 116.147 0 210.643 94.505 210.643 210.65 0 116.147-94.495 210.651-210.643 210.651zm80.69-210.651c0-44.497-36.187-80.693-80.681-80.693-44.489 0-80.678 36.197-80.678 80.693 0 44.495 36.197 80.69 80.678 80.69 44.478 0 80.681-36.196 80.681-80.69zm-80.69 57.138c-31.521 0-57.134-25.636-57.134-57.138 0-31.512 25.629-57.142 57.134-57.142 31.502 0 57.122 25.63 57.122 57.142.016 31.514-25.603 57.138-57.122 57.138zm0-98.399c-22.75 0-41.269 18.51-41.269 41.26 0 22.747 18.511 41.26 41.269 41.26 22.746 0 41.261-18.498 41.261-41.26 0-22.749-18.498-41.26-41.261-41.26zm0 58.969c-9.774 0-17.717-7.942-17.717-17.708s7.951-17.708 17.717-17.708c9.767 0 17.709 7.942 17.709 17.708s-7.934 17.708-17.709 17.708zm56.914 64.997l51.03 75.796s-31.302 35.759-78.458 39.321l-15.749-100.467c0 .001 31.403.113 43.177-14.65zM169.217 159.353L118.19 75.7s35.552-31.466 78.453-31.466l15.751 92.6c.001-.001-30.201 1.416-43.177 22.519zm58.851-20.264l-14.056-98.857 15.543-2.208 14.061 98.861-15.548 2.204z"/></svg>
